<?xml version="1.0" encoding="utf-8"?>
<!-- Generator: Adobe Illustrator 19.1.1, SVG Export Plug-In . SVG Version: 6.00 Build 0)  -->
<svg version="1.1" id="Warstwa_1" xmlns="http://www.w3.org/2000/svg" xmlns:xlink="http://www.w3.org/1999/xlink" x="0px" y="0px"
	 viewBox="0 0 58 95.8" style="enable-background:new 0 0 58 95.8;" xml:space="preserve">
<style type="text/css">
	.st0{fill:#1D1D1B;}
	.st1{fill:#FFC908;}
	.st2{opacity:0.8;}
	.st3{fill:#FAEEBB;}
	.st4{fill:#FEFCF3;}
	.st5{fill:#FDFAEA;}
	.st6{fill:#FCF4D6;}
	.st7{fill:#FDF7DE;}
	.st8{fill:#FDF8E4;}
	.st9{fill:#FEFAEC;}
	.st10{fill:#FBF3D0;}
	.st11{fill:#FCF4D5;}
	.st12{opacity:0.6;}
	.st13{opacity:0.5;}
	.st14{fill:#FFFFFF;}
	.st15{fill:#E20613;}
</style>
<g>
	<ellipse class="st0" cx="32.6" cy="88.3" rx="25.4" ry="7.3"/>
	<path class="st1" d="M1.6,13.2l45.4,0.1c0,0,1,15,0.4,22.5c-0.6,7.5-3.8,19.4-4.7,29.2c-0.9,9.8-0.7,17.8-0.7,17.8s0,3.1,0.3,4.4
		c0.3,1.3,0.3,2.8,0.3,2.8s-1.2,4.5-17.8,4.5c-16.7,0-18-3.5-18-3.5l0.3-3.9c0,0,0.6-14.6-0.3-20.6c-0.9-6-4.7-20.5-5.4-28.3
		C0.7,30.3,1.6,13.2,1.6,13.2z"/>
	<path class="st0" d="M24.8,95.8c-16.2,0-18.7-3.3-19.1-4.3l-0.1-0.2L6,87.1c0-0.6,0.6-14.6-0.3-20.4c-0.3-2.3-1.2-6.1-2-10.1
		c-1.4-6.3-2.9-13.5-3.4-18.3c-0.7-7.9,0.2-24.4,0.3-25.1L0.7,12l47.5,0.2l0.1,1.1c0,0.6,1,15.2,0.4,22.7c-0.3,3.6-1.2,8.3-2.1,13.2
		c-1,5.4-2.1,11-2.6,16c-0.9,9.6-0.7,17.6-0.7,17.7c0,0.8,0,3.2,0.3,4.1c0.3,1.4,0.3,3,0.3,3v0.2l0,0.1
		C43.6,91.3,41.6,95.8,24.8,95.8z M8.1,90.7c0.7,0.6,4.1,2.7,16.7,2.7c13.4,0,16.2-3,16.6-3.6c0-0.5-0.1-1.4-0.3-2.3
		c-0.3-1.4-0.3-4.3-0.3-4.6c0-0.1-0.1-8.2,0.7-17.9c0.5-5.2,1.5-10.8,2.6-16.3c0.9-4.9,1.8-9.4,2.1-12.9c0.5-6.1-0.1-17.6-0.4-21.2
		L2.8,14.4c-0.2,3.9-0.7,17.1-0.1,23.7c0.4,4.7,2,11.8,3.3,18c0.9,4.2,1.7,7.9,2.1,10.3c0.9,6,0.3,20.2,0.3,20.8l0,0L8.1,90.7z"/>
	<path class="st0" d="M48.4,15.2L0.5,15.1l0.2-3l0.9-7.6l1,0c0.1,0,11.7-0.3,19.5-0.3c1.4,0,2.6,0,3.6,0c7.3,0.1,20.8,0.4,20.8,0.4
		l1.1,0L48.4,15.2z M3.1,12.6l42.8,0.1L45.4,7C42,6.9,31.8,6.7,25.7,6.5c-1,0-2.2,0-3.5,0c-6.4,0-15.4,0.2-18.4,0.3L3.1,12.6z"/>
	<g class="st2">
		<g>
			<g>
				<g class="st2">
					<g class="st2">
						<path class="st3" d="M35.2,57.6c-0.6,0-0.3,0.5-0.1,1.1c0-0.1,0-0.2,0.1-0.2L35.2,57.6z"/>
						<path class="st3" d="M35.1,58.4c0,0.1-0.1,0.2-0.1,0.2c0,0.1,0,0.1,0,0.2L35.1,58.4z"/>
						<path class="st3" d="M35.5,57.6c-0.1,0-0.2,0-0.3,0l-0.1,0.8C35.2,58.1,35.3,57.9,35.5,57.6z"/>
						<path class="st3" d="M35.1,58.8l0,0.4C35.1,59.2,35.1,59,35.1,58.8z"/>
						<path class="st4" d="M39.3,70.2c0.1-1.8,0.2-3.5,0.3-5.2c0.1-1.6,0.4-3.2,0.6-4.9c-0.4,0.9-0.8,1.8-1.1,2.5
							c-0.3,0.6-0.3,1.2-0.4,1.8c0,0.6,0,1.2,0,1.9C38.9,67.6,39.1,68.9,39.3,70.2z"/>
						<path class="st5" d="M41.1,55.1l0.6-3.4C41.3,52.8,41.1,54,41.1,55.1z"/>
						<path class="st4" d="M39.2,70.1c-0.4-2.6-1.1-5.2-0.2-7.5c0.3-0.8,0.7-1.6,1.1-2.6c0.4-2.7,0.9-5.4,1.3-8.1
							c0-1.2,0.3-2.3,0.6-3.4c0.9-5.4,1.7-10.9,2.1-16.6c0.1-1.4,0.2-2.9,0.2-4.3c0-1.4,0-2.8,0-4.3c0-2.8,0.1-5.7-0.1-8.8
							c0-0.7-0.6-4.5-1.2-5.2l-0.6-1.2l-0.2,0c0.2,1.1,0.2,2.2,0.5,3.4c0.1,0.7,0.4,1.4,0.4,2.1c0.2,3.2-0.1,6,0.4,9.4
							c0.1,0.5-0.1,1.2-0.2,1.8c-0.2,0.7-0.4,1.4-0.2,1.9c0.2,4.2-1,7.7-1.1,11.4c-0.1,3.1,0.1,5.2-0.5,8.3c-0.1,0.7,0,1.7-0.1,2.4
							c-0.8,4.4-1.7,8.7-2.6,12.9c0,0.5-0.3,1-0.6,1.4c-0.2,0.5-0.4,0.9-0.3,1.4c0.4,1.3,0.7,2.7,0.9,4.1c0,0.3-0.7,0.7-0.7,1.4
							c-0.2,2.6,0.4,5.1,0.3,7.5c0.1-0.1,0.1-0.3,0.2-0.4C38.9,74.8,39,72.4,39.2,70.1z"/>
						<g>
							<path class="st4" d="M37.9,84.8c-0.1-0.4-0.1-0.8-0.2-1.2c-0.4,1.1-0.6,2.4-0.9,3.6c-0.2,0.6-0.2,1.3-0.4,2
								c-0.1,0.3-0.1,0.7-0.2,1c-0.1,0.3-0.2,0.7-0.3,1.1C37,89.1,37.5,87,37.9,84.8z"/>
							<path class="st4" d="M38.3,81L38.3,81c0.1-1.2,0.2-2.5,0.4-3.7c-0.1,0.1-0.1,0.3-0.2,0.4c0,0.7-0.1,1.4-0.3,2.1L38,80.4
								c0,0.3,0.1,0.6,0.2,0.9c0,0-0.1,0.1-0.1,0.1c-0.4,0.6-0.4,1.4-0.3,2.3l0.2-0.6C38.1,82.4,38.3,81.7,38.3,81z"/>
						</g>
						<path class="st6" d="M32,79.7c0.8-2.3-0.3-3.6,0.2-6c0.3-1.7,0.3-3.4,0.2-5.1c-0.3,3.8-0.6,7.4-0.8,10.9
							C31.7,79.5,31.8,79.5,32,79.7z"/>
						<path class="st7" d="M33.7,89.2c-0.1-0.4-0.1-0.7-0.1-1.2c0-0.4,0.1-0.9,0.3-1.5c0.6-1.9,1.4-3.5,1.5-5.2
							c0.6-4.7-1.4-10.2,0.3-14.9c0.4-1.1,0.6-2.2,0.8-3.4c0.2-1.2,0.4-2.4,0.5-3.6c0.2-2.5,0.3-5,0.6-7.5c0.1-1-0.2-2.4,0-3.4
							c0.5-3.4,0.8-6.4,1.2-9.4c0.2-2.4,1.5-2.6,1.4-5.3c0-0.3,0.5-1,0.6-1.3c0.2-4,0-8,0.2-12c0.1-4,0.1-8.1-0.4-12.1
							c-0.5,0-1,0.1-1.5,0.3c1.1,5.3,0.2,10.9,0,16c-0.4,6.8-0.6,13.5-1.9,20.2c-0.6,3.1-1.3,6.5-1.6,9.8c0.1,0,0.2,0,0.3,0
							c-0.2,0.3-0.3,0.5-0.4,0.8l0,0.4c0,0.2,0,0.3,0,0.4l0-0.4c0-0.1,0-0.1,0-0.2c-0.8,2.4,0.1,5.3-0.4,6.8c-1,2.6-0.8,5.6-0.7,8.4
							c0.1,2.8,0.3,5.5-0.1,7.7c-0.7,4.4-0.9,8-0.8,11.2C33.4,89.3,33.6,89.3,33.7,89.2z"/>
						<path class="st8" d="M35.9,89.6c0.2-0.1,0.3-0.2,0.5-0.3c-0.2-1.8-0.2-3.6-0.1-5.6c0.1-2,0.2-4,0.4-6c0-0.3,0.5-1,0.8-1.7
							c0.3-1.7-0.9-2.7-0.7-4.1c0.5-3,0.7-6,1-8.8c0.4-2.9,0.7-5.9,1.1-8.8c0.6-5.9,1.1-11.9,1.5-17.8c0.1-0.7,1.2,0.1,1.5-0.9
							c0.5-2.7,0.4-5.2,1.1-7.6c0.3-0.3-0.5-1.4-0.7-2.4c-0.7-3.7,0.6-7.1-0.1-11c-0.5-2.1-0.4-4.2-0.9-6.2c-0.2,0-0.3,0-0.5,0
							c0.5,4.1,0.4,8.1,0.4,12.1c-0.1,4,0,8-0.2,12c0,0.3-0.5,1-0.6,1.3c0,2.1-1.1,2.4-1.4,5.3c-0.3,3.1-0.7,6-1.2,9.4
							c-0.1,1,0.2,2.4,0,3.4c-0.3,2.5-0.4,5.1-0.6,7.5c-0.1,1.2-0.2,2.4-0.5,3.6c-0.2,1.2-0.4,2.3-0.8,3.4
							c-1.7,4.8,0.2,10.2-0.3,14.9c-0.1,1.7-1,3.3-1.5,5.2c-0.2,0.5-0.3,1-0.3,1.5c0,0.4,0,0.8,0.1,1.2c0.7-0.5,1.6-0.6,2.4-0.4
							C36,89,35.9,89.3,35.9,89.6z"/>
						<path class="st9" d="M33.6,90.6c1.2,0.1,2.2-0.3,2.5-0.6c0.4-0.3,0.3-0.3-0.6,0.1c0.1-0.3,0.2-0.6,0.2-0.8
							c-0.8-0.2-1.6-0.1-2.4,0.3C33.4,90,33.4,90.3,33.6,90.6z"/>
						<path class="st9" d="M36.6,89.1c0.2-0.4,0.2-0.8,0.4-1.2c0.1-2.6,0.4-5.3,1-7.5c-0.1-0.9-0.1-1.7,0.2-2.3
							c0.1-0.1,0.2-0.3,0.2-0.4c0.1-2.4-0.5-4.9-0.3-7.5c0-0.7,0.7-1,0.7-1.4c-0.2-1.4-0.5-2.7-0.9-4.1c-0.1-0.5,0.1-1,0.3-1.4
							c0.2-0.5,0.5-1,0.6-1.4c0.9-4.3,1.7-8.6,2.6-12.9c0.1-0.7,0-1.7,0.1-2.4c0.6-3,0.4-5.1,0.5-8.3c0.1-3.8,1.4-7.2,1.1-11.4
							c-0.1-0.5,0.1-1.2,0.2-1.9c0.2-0.7,0.4-1.3,0.2-1.8c-0.5-3.4-0.2-6.2-0.4-9.4c0-0.7-0.3-1.4-0.4-2.1c-0.3-1.2-0.3-2.3-0.5-3.4
							l-0.8,0.1c-0.1,0-0.3,0-0.4,0c0.6,2.1,0.5,4.2,0.9,6.2c0.7,3.9-0.6,7.3,0.1,11c0.2,1,1,2.1,0.7,2.4c-0.7,2.4-0.7,4.9-1.1,7.6
							c-0.3,1-1.4,0.2-1.5,0.9c-0.4,6-0.9,11.9-1.5,17.8c-0.3,2.9-0.7,5.9-1.1,8.8c-0.3,2.8-0.5,5.9-1,8.8c-0.2,1.4,0.9,2.4,0.7,4.1
							c-0.3,0.7-0.7,1.3-0.8,1.7c-0.1,2-0.3,4-0.4,6c-0.1,2-0.1,3.9,0.1,5.6C36.5,89.2,36.6,89.1,36.6,89.1z"/>
						<path class="st6" d="M35.5,46.3c-0.2,1.5-0.4,3-0.7,4.6c0,0.1-0.1,0.3-0.1,0.7C35,49.7,35.4,48,35.5,46.3z"/>
						<path class="st6" d="M34.3,54c-0.3,1.7-0.6,3.6-0.7,4.7c0.5-1.1,0.9-2.3,1.1-3.6C34.6,55.1,34.2,54.4,34.3,54z"/>
						<g>
							<path class="st10" d="M31.5,82c-0.1,2.3-0.1,4.6-0.2,6.6c0.4-0.9,0.5-2,0.5-3.2c0-0.6,0-1.1-0.1-1.7
								C31.7,83.2,31.6,82.6,31.5,82z"/>
							<path class="st11" d="M33.3,89.4c-0.1-3.1,0.2-6.7,0.8-11.2c0.4-2.2,0.2-4.9,0.1-7.7c-0.1-2.8-0.2-5.7,0.7-8.4
								c0.5-1.5-0.3-4.4,0.4-6.8c-0.2-0.5-0.5-1,0.2-1.1c0.3-3.3,1-6.6,1.6-9.8c1.3-6.7,1.6-13.4,1.9-20.2c0.2-5,1.1-10.6,0-16
								C37.8,9,37,9.9,37.2,11.6c0,3.3-0.2,6.5-0.2,9.5c0,0.8,0,1.5,0,2.3c0,0.8,0,1.5,0,2.3c0,1.5,0,2.9,0,4.4
								c0.2,2.2,0.2,4.4-0.1,6.5c0-1.1,0-2.2-0.1-3.3c-0.1,2.6-0.3,5.3-0.6,8.1l0.1-0.2c-0.1,0.7-0.2,1.3-0.2,2
								c-0.1,1.7-0.5,3.5-0.8,5.2c-0.1,0.6-0.3,1.5-0.4,2.5c0,0.3-0.3,3.6-0.8,4.6c-0.1,0.4-0.1,0.6-0.1,0.7
								c-0.3,1.5-0.5,3.1-0.8,4.6c-0.1,0.8-0.3,1.5-0.4,2.3l-0.1,1.2l-0.1,1.1c0.1,1.7,0.1,3.4-0.2,5.1c-0.5,2.4-0.4,5.9-0.5,6
								c0,0.8,0,1.7,0,2.5c0.5,2.4,0.8,4.8,0.3,7.1c0,0.6,0.1,1.2,0.1,1.8c0,1.1,0.4,1.6,0.8,1.9C33,89.7,33.2,89.5,33.3,89.4z"/>
						</g>
					</g>
				</g>
			</g>
		</g>
	</g>
	<g class="st12">
		<g>
			<g>
				<g class="st2">
					<g class="st2">
						<path class="st3" d="M30.2,57.5c-0.2,0.1-0.1,0.5-0.1,0.9c0-0.1,0-0.1,0-0.2L30.2,57.5z"/>
						<path class="st3" d="M30.1,58.2c0,0.1,0,0.1,0,0.2c0,0.1,0,0.1,0,0.2L30.1,58.2z"/>
						<path class="st3" d="M30.3,57.5C30.2,57.4,30.2,57.5,30.3,57.5l-0.1,0.8C30.2,57.9,30.2,57.7,30.3,57.5z"/>
						<path class="st3" d="M30.1,58.6l0,0.4C30.1,58.8,30.1,58.7,30.1,58.6z"/>
						<path class="st4" d="M30.5,68.6c0.3-3.1,0.6-6.2,0.9-9.3c-0.2,0.8-0.3,1.7-0.4,2.4C30.6,64,30.5,66.3,30.5,68.6z"/>
						<path class="st5" d="M31.8,54.8l0.3-3.1C32,52.7,31.9,53.7,31.8,54.8z"/>
						<path class="st4" d="M30.4,68.5c0.1-2.3,0.1-4.6,0.5-6.9c0.1-0.7,0.3-1.6,0.4-2.4c0.3-2.4,0.5-4.9,0.8-7.3
							c0.1-1.1,0.2-2.1,0.3-3.1c0.5-4.8,1.1-9.6,1.6-14.5c0.5-5,0.8-10,1-15.2c0-0.6,0.1-3.8,0-4.4l0-1.1l-0.1,0
							c-0.1,0.9-0.1,1.9-0.1,2.9c0,0.6,0,1.3,0,1.8c-0.1,2.7-0.3,5.2-0.4,8.2c0,0.9-0.3,2.4-0.3,3.3c-0.2,3.7-0.8,6.7-1.1,10
							c-0.2,2.7-0.3,4.5-0.6,7.3c0,0.6-0.1,1.5-0.2,2.1c-0.4,3.9-0.9,7.7-1.3,11.8c-0.1,0.9-0.4,1.8-0.4,2.7c0,1.2,0,2.4-0.1,3.7
							c0,0.3-0.2,0.6-0.3,1.2c-0.2,2.3-0.2,4.5-0.3,6.6c0-0.1,0-0.2,0.1-0.4C30,72.7,30.3,70.6,30.4,68.5z"/>
						<g>
							<path class="st4" d="M29.8,81.4c0-0.3-0.1-0.7-0.1-1c-0.1,2,0,4.3,0.5,6.4C29.9,85,29.8,83.2,29.8,81.4z"/>
							<path class="st4" d="M29.8,78L29.8,78c0-1,0.1-2.1,0.2-3.2c0,0.1,0,0.2-0.1,0.4c0,0.6-0.1,1.2-0.1,1.9l0,0.5
								c0,0.2,0,0.5,0,0.7c0,0,0,0.1,0,0.1c-0.1,0.5-0.1,1.2,0,2l0-0.5C29.7,79.3,29.7,78.7,29.8,78z"/>
						</g>
						<path class="st6" d="M28.2,77.1c0.2-2.1,0-3.4,0.3-5.5c0.2-1.5,0.3-3,0.4-4.5c-0.3,3.4-0.7,6.6-0.8,10
							C28.1,77,28.1,77,28.2,77.1z"/>
						<path class="st7" d="M29.3,85.9c-0.2-0.6-0.3-1.4-0.3-2.5c-0.1-1.8,0.1-3.4,0.1-4.9c0.1-4.3,0.1-9.1,0.8-13.3
							c0.7-3.9,0.8-8.5,1.3-13c0.1-0.9,0.1-2.1,0.2-3c0.3-3,0.6-5.7,0.9-8.5c0.2-2.1,0.6-2.4,0.8-4.8c0-0.3,0.2-0.9,0.3-1.2
							c0.7-7,0.9-14.2,1.4-21.2c-0.1-0.1-0.3-0.1-0.4,0c-0.2,4.8-0.6,9.8-0.9,14.3c-0.5,6-1.2,12.1-1.9,18.1
							c-0.3,2.8-0.7,5.9-0.9,8.8c0,0,0,0,0.1,0c-0.1,0.2-0.1,0.5-0.1,0.7l0,0.4c0,0.1,0,0.3,0,0.4l0-0.4c0,0,0-0.1,0-0.2
							c-0.3,2.2-0.2,4.7-0.5,6c-0.7,4.5-0.8,10.3-1.2,14.2c-0.3,4-0.2,7.5,0.5,10.4C29.3,86.1,29.3,86,29.3,85.9z"/>
						<path class="st8" d="M29.8,85.6c0-0.1,0-0.2,0.1-0.3c-0.6-2.7-0.7-6.6-0.5-10c0-0.3,0.2-0.9,0.3-1.5c0.1-1.5-0.1-2.4,0.1-3.6
							c1.3-10.6,1.9-21.2,3-31.7c0.1-0.6,0.3,0,0.5-0.9c0.3-2.4,0.5-4.5,0.8-6.7c0.1-0.3,0-1.2,0-2.1c0.1-3.4,0.5-6.4,0.5-9.7
							c0-1.8,0.2-3.6,0.2-5.4c0,0-0.1-0.1-0.1-0.1c-0.5,7-0.7,14.3-1.4,21.2c0,0.3-0.2,0.9-0.3,1.2c-0.2,1.9-0.5,2.1-0.8,4.8
							c-0.3,2.8-0.6,5.4-0.9,8.5c-0.1,0.9-0.1,2.1-0.2,3c-0.4,4.5-0.6,9.1-1.3,13c-0.7,4.2-0.7,9.1-0.8,13.3c0,1.5-0.2,3-0.1,4.9
							c0,1.1,0.2,1.9,0.3,2.5c0.1-0.7,0.2-1,0.4-1C29.7,85.1,29.8,85.3,29.8,85.6z"/>
						<path class="st9" d="M29.6,87.2c0.4-0.9,0.5-2.2,0.3-1c0-0.3-0.1-0.5-0.1-0.7c-0.2,0-0.4,0.3-0.4,1
							C29.4,86.7,29.5,87,29.6,87.2z"/>
						<path class="st9" d="M29.9,85l-0.1-1c-0.3-2.1-0.3-4.5-0.1-6.5c0-0.8,0-1.5,0.1-2c0-0.1,0-0.2,0.1-0.4
							c0.1-2.1,0.1-4.3,0.3-6.6c0-0.6,0.2-0.9,0.3-1.2c0-1.2,0.1-2.4,0.1-3.7c0-0.9,0.3-1.8,0.4-2.7c0.5-4,0.9-7.9,1.3-11.8
							c0-0.6,0.1-1.5,0.2-2.1c0.3-2.7,0.4-4.5,0.6-7.3c0.3-3.3,0.9-6.3,1.1-10c0-0.9,0.3-2.4,0.3-3.3c0.1-3,0.2-5.5,0.4-8.2
							c0-0.6,0-1.2,0-1.8c0-1,0.1-1.9,0.1-2.9l-0.2,0c0,0-0.1-0.1-0.1-0.1c0,1.8-0.2,3.6-0.2,5.4c0,3.3-0.5,6.4-0.5,9.7
							c0,0.9,0.1,1.8,0,2.1c-0.3,2.1-0.5,4.2-0.8,6.7c-0.2,0.9-0.4,0.3-0.5,0.9c-1.1,10.6-1.8,21.2-3,31.7c-0.1,1.2,0.1,2.1-0.1,3.6
							c-0.1,0.6-0.2,1.2-0.3,1.5c-0.2,3.5-0.2,7.4,0.5,10C29.9,85.1,29.9,85,29.9,85z"/>
						<path class="st6" d="M30.9,47.4c-0.1,1.3-0.3,2.7-0.4,4.1c0,0.1,0,0.3-0.1,0.6C30.6,50.6,30.7,49,30.9,47.4z"/>
						<path class="st6" d="M30.1,54.4c-0.2,1.5-0.3,3.2-0.4,4.2c0.2-1,0.3-2,0.5-3.2C30.2,55.3,30.1,54.7,30.1,54.4z"/>
						<g>
							<path class="st10" d="M28.1,79.4c0,2.2,0.2,4.5,0.6,6.8C28.4,83.9,28.2,81.7,28.1,79.4z"/>
							<path class="st11" d="M29.2,86.2c-0.7-2.9-0.8-6.4-0.5-10.4c0.3-4,0.4-9.7,1.2-14.2c0.2-1.3,0.1-3.8,0.5-6
								c0-0.4-0.1-0.9,0.1-0.9c0.2-2.9,0.6-6,0.9-8.8c0.7-6,1.4-12.1,1.9-18.1c0.3-4.5,0.7-9.4,0.9-14.3c-0.3,0.2-0.6,1-0.7,2.6
								c-0.5,6.2-0.7,11.5-1.1,16.8c-0.1,2-0.3,3.9-0.6,5.9c0.1-1,0.2-2,0.3-3c-0.2,2.4-0.5,4.8-0.8,7.3l0-0.2
								c-0.1,0.6-0.1,1.2-0.2,1.8c-0.1,1.5-0.3,3.1-0.5,4.7c-0.1,0.5-0.2,1.4-0.2,2.3c0,0.3-0.3,3.2-0.4,4.1c0,0.3-0.1,0.5-0.1,0.6
								c-0.3,2.7-0.6,5.4-0.8,7.9c-0.1,1.5-0.2,3-0.4,4.5c-0.1,1.1-0.3,2.4-0.3,3.5c0,0.5-0.1,1-0.1,1.4c0,0.3,0,0.6,0,0.6
								c0,0.8-0.1,1.6-0.1,2.3c0.1,2.2,0.2,4.5,0.3,6.8c0.1,0.6,0.2,1.2,0.3,1.8c0.2,1.1,0.4,1.5,0.6,1.6
								C29.2,86.6,29.2,86.4,29.2,86.2z"/>
						</g>
					</g>
				</g>
			</g>
		</g>
	</g>
	<g class="st13">
		<g>
			<g>
				<g class="st2">
					<g class="st2">
						<path class="st3" d="M8,56.3c-0.3,0.2,0,0.6,0.2,1c0-0.1,0-0.2,0-0.2L8,56.3z"/>
						<path class="st3" d="M8.1,57.1c0,0.1,0,0.2,0,0.2c0,0.1,0.1,0.1,0.1,0.2L8.1,57.1z"/>
						<path class="st3" d="M8.1,56.3c-0.1,0-0.1,0-0.1,0.1l0.2,0.8C8.1,56.8,8.1,56.6,8.1,56.3z"/>
						<path class="st3" d="M8.2,57.5l0.1,0.4C8.3,57.8,8.3,57.7,8.2,57.5z"/>
						<path class="st4" d="M12.6,67.9c-0.4-3.5-0.9-6.9-1.6-10.2c0,1,0.1,2,0.1,2.7C11.3,62.9,12,65.4,12.6,67.9z"/>
						<path class="st5" d="M10,52.7l-0.7-3.3C9.4,50.5,9.7,51.6,10,52.7z"/>
						<path class="st4" d="M12.5,67.8c-0.6-2.5-1.3-5-1.5-7.5c-0.1-0.8-0.1-1.8-0.1-2.7c-0.5-2.6-1.1-5.3-1.6-7.9
							c-0.3-1.1-0.5-2.2-0.7-3.3c-1-5.1-1.9-10.3-2.1-15.6c-0.3-5.2,0.7-10.4,1.4-16.2c0.1-0.7,0.3-4.3,0.1-5L7.9,8.4l-0.1,0
							c-0.1,1.1-0.2,2.1-0.2,3.2c-0.1,0.7,0,1.4-0.1,2c-0.4,3-0.9,5.6-1,8.9c0,1-0.6,2.6-0.5,3.5C5.9,30,5.7,33.3,6.2,36.8
							c0.5,2.9,1.1,4.8,1.6,7.7c0.1,0.6,0.5,1.6,0.6,2.2c0.8,4.2,1.7,8.5,2.4,12.8c0.2,1-0.1,2.1,0.2,3c0.5,1.3,0.8,2.6,1.1,3.9
							c0,0.3-0.2,0.7-0.2,1.4c0.2,2.6,0.8,5,0.8,7.3c0-0.1,0.1-0.3,0.1-0.4C12.9,72.5,12.7,70.1,12.5,67.8z"/>
						<g>
							<path class="st4" d="M12.4,82.3c0-0.4,0-0.8,0-1.1c-0.5,2.2-1,4.8-1.4,7.2C11.6,86.4,12.1,84.4,12.4,82.3z"/>
							<path class="st4" d="M12.8,78.5L12.8,78.5c0.1-1.2,0.1-2.4,0.1-3.6c0,0.1-0.1,0.3-0.1,0.4c0,0.7,0,1.4-0.1,2.1L12.6,78
								c0,0.3,0,0.5,0.1,0.8c0,0,0,0.1,0,0.1c-0.2,0.6-0.2,1.4-0.2,2.3c0-0.2,0.1-0.4,0.1-0.6C12.6,80,12.7,79.2,12.8,78.5z"/>
						</g>
						<path class="st6" d="M9.6,77.5c0.2-1.1,0.1-2,0-2.9c-0.1-0.9-0.2-1.8-0.2-2.9c0-0.8,0-1.6-0.1-2.4c-0.1-0.8-0.2-1.6-0.4-2.4
							c0.4,3.6,0.5,7.1,0.5,10.5C9.4,77.4,9.5,77.4,9.6,77.5z"/>
						<path class="st7" d="M9.9,86.9c0-0.3,0-0.7,0.1-1.2c0-0.4,0.1-0.9,0.3-1.5c0.3-1,0.5-1.8,0.7-2.7c0.2-0.8,0.3-1.7,0.4-2.5
							c0.2-2.3-0.1-4.8-0.4-7.3c-0.3-2.5-0.7-4.9-0.7-7.3c0-4.4-1.6-9.2-2.7-14.1c-0.2-1-0.7-2.2-1-3.2C5.8,44,5.3,41,4.9,38
							c-0.3-2.3,0.2-2.7-0.1-5.4c0-0.3,0.2-1,0.1-1.3c-0.3-3.8,0-7.7,0.6-11.5C6,16,6.7,12.1,7,8.2c-0.3-0.1-0.5-0.1-0.7,0
							c-0.1,5.3-1.6,10.6-2.1,15.5C3.6,27,3.7,30.4,4,33.8c0.3,3.3,0.8,6.7,1.4,10c0.5,3.1,1.2,6.4,1.9,9.5c0,0,0.1,0,0.1-0.1
							c0,0.3,0,0.6,0,0.8l0.1,0.4c0.1,0.1,0.1,0.3,0.1,0.4l-0.1-0.4c0,0,0-0.1-0.1-0.2C7.8,56.7,9,59.2,9,60.7
							c0.2,2.5,0.7,5.3,1.1,7.9c0.4,2.7,0.7,5.3,0.5,7.4c-0.2,4.3-0.7,7.9-1,11.1C9.7,87.1,9.8,87,9.9,86.9z"/>
						<path class="st8" d="M11,86.9c0.1-0.1,0.2-0.2,0.3-0.3c0.1-3.1,0.6-7.3,0.6-11.2c0-0.3,0.2-1,0.3-1.7c0-1.7-0.6-2.6-0.7-4
							c-0.2-5.9-1.4-11.7-2.8-17.3c-1.4-5.7-2.9-11.3-3.6-17.1c-0.1-0.7,0.6-0.1,0.6-1.1c-0.1-2.6-0.4-4.9,0.1-7.2
							c0.1-0.3-0.2-1.3-0.2-2.3C5.5,21.2,6.6,18,6.8,14.3c0.1-2,0.4-4,0.4-6C7.1,8.2,7.1,8.2,7,8.2C6.7,12.1,6,16,5.5,19.8
							c-0.6,3.9-0.9,7.7-0.6,11.5c0,0.3-0.2,1-0.1,1.3c0.3,2-0.3,2.4,0.1,5.4c0.4,3,1,5.9,1.7,9.2c0.2,1,0.7,2.2,1,3.2
							c1.1,4.9,2.7,9.7,2.7,14.1c0,2.4,0.4,4.8,0.7,7.3c0.3,2.5,0.6,5,0.4,7.3c-0.1,0.8-0.2,1.7-0.4,2.5c-0.2,0.8-0.4,1.7-0.7,2.7
							c-0.1,0.6-0.2,1.1-0.3,1.5c-0.1,0.4-0.1,0.8-0.1,1.2c0.5-0.6,0.9-0.8,1.3-0.8C11.2,86.3,11.1,86.6,11,86.9z"/>
						<path class="st9" d="M9.7,88.3c1.3-0.6,2-1.9,1.1-0.9c0.1-0.3,0.1-0.6,0.2-0.8c-0.4-0.1-0.9,0.1-1.3,0.7
							C9.6,87.8,9.7,88.1,9.7,88.3z"/>
						<path class="st9" d="M11.5,86.3c0.1-0.4,0.2-0.7,0.3-1.1c0.3-2.4,0.5-5,0.9-7.3c-0.1-0.9-0.1-1.7,0.1-2.3
							c0-0.1,0.1-0.3,0.1-0.4c-0.1-2.4-0.6-4.8-0.8-7.3c-0.1-0.7,0.2-1,0.2-1.4c-0.3-1.3-0.7-2.6-1.1-3.9c-0.3-1,0-2-0.2-3
							c-0.7-4.3-1.6-8.6-2.4-12.8c-0.1-0.6-0.5-1.6-0.6-2.2c-0.5-2.9-1-4.8-1.6-7.7C5.7,33.3,5.9,30,5.9,26.1
							c-0.1-1,0.5-2.6,0.5-3.5c0.1-3.3,0.7-5.9,1-8.9c0.1-0.7,0-1.4,0.1-2c0-1.1,0.2-2.2,0.2-3.2l-0.4,0c-0.1,0-0.1-0.1-0.2-0.1
							c0,2-0.3,4-0.4,6C6.6,18,5.5,21.2,5.5,24.8c0,1,0.4,2,0.2,2.3c-0.4,2.2-0.2,4.5-0.1,7.2c0,1-0.7,0.4-0.6,1.1
							c0.7,5.8,2.2,11.4,3.6,17.1c1.4,5.7,2.6,11.4,2.8,17.3c0,1.3,0.7,2.3,0.7,4c-0.1,0.7-0.3,1.4-0.3,1.7c0,3.9-0.5,8.1-0.6,11.2
							C11.4,86.4,11.5,86.3,11.5,86.3z"/>
						<path class="st6" d="M5,45.7c0.3,1.4,0.6,2.9,0.9,4.4c0,0.1,0.1,0.3,0.1,0.6C5.7,49.1,5.4,47.3,5,45.7z"/>
						<path class="st6" d="M6.6,53.2c0.3,1.6,0.7,3.5,0.9,4.5c-0.1-1.1-0.2-2.3-0.5-3.6C7,54.1,6.6,53.6,6.6,53.2z"/>
						<g>
							<path class="st10" d="M9.3,79.9c-0.1,2.3-0.3,4.6-0.7,7C9.3,84.6,9.4,82.2,9.3,79.9z"/>
							<path class="st11" d="M9.7,87.2c0.3-3.2,0.8-6.8,1-11.1c0.1-2.1-0.1-4.8-0.5-7.4c-0.4-2.7-0.9-5.4-1.1-7.9
								c-0.1-1.5-1.2-4-1.6-6.4c-0.2-0.4-0.5-0.8-0.2-1c-0.7-3.1-1.4-6.4-1.9-9.5c-0.5-3.3-1-6.6-1.4-10C3.7,30.4,3.6,27,4.1,23.7
								c0.6-4.9,2-10.2,2.1-15.5c-0.7,0.2-1.2,1-1.4,2.7c-0.5,3.3-1.1,6.4-1.5,9.5c-0.4,3-0.7,6-0.6,9.1C3,31.7,3.2,33.9,3.4,36
								c-0.2-1.1-0.3-2.2-0.5-3.3c0.2,2.7,0.6,5.4,1.1,8.1l0-0.2c0.1,0.7,0.2,1.3,0.3,2c0.4,1.7,0.7,3.4,1,5.1
								c0.1,0.6,0.3,1.5,0.5,2.5c0.1,0.3,0.9,3.4,0.9,4.5c0.1,0.3,0.1,0.6,0.1,0.7c0.6,3,1.1,5.8,1.5,8.5C8.7,65.4,9,67,9.1,68.7
								c0,1.1,0.1,2.6,0.2,3.7c0,0.6,0.1,1.1,0.1,1.4c0,0.4,0,0.6,0,0.6c0,0.8,0.1,1.6,0.1,2.4c0.3,2.3,0.3,4.7-0.2,7.1
								c-0.1,0.6-0.1,1.3-0.1,1.9c-0.1,1.1,0,1.7,0.2,1.9C9.5,87.5,9.6,87.3,9.7,87.2z"/>
						</g>
					</g>
				</g>
			</g>
		</g>
	</g>
	<g class="st12">
		<g>
			<g>
				<g class="st2">
					<g class="st2">
						<path class="st3" d="M27.1,93c0,0.2,0.2,0.1,0.4,0c0,0-0.1,0-0.1,0L27.1,93z"/>
						<path class="st3" d="M27.5,93C27.5,93,27.5,93,27.5,93c0.1,0,0.1,0,0.2,0L27.5,93z"/>
						<path class="st3" d="M27.1,92.9C27.1,93,27.1,93,27.1,92.9l0.3,0.1C27.3,93,27.2,93,27.1,92.9z"/>
						<path class="st3" d="M27.6,93l0.2,0C27.7,93,27.7,93,27.6,93z"/>
						<path class="st4" d="M31.8,91.4c-1.3,0.1-2.6,0.2-3.9,0.2c0.4,0.1,0.7,0.1,1,0.2C29.9,91.9,30.8,91.7,31.8,91.4z"/>
						<path class="st5" d="M25.9,91.7l-1.3,0C25,91.7,25.5,91.7,25.9,91.7z"/>
						<path class="st4" d="M31.7,91.5c-0.9,0.2-1.9,0.5-2.9,0.4c-0.3,0-0.7-0.1-1-0.2c-1,0-2.1,0-3.1,0c-0.5,0-0.9,0-1.3,0
							c-2-0.1-4.1-0.2-6.2-0.4c-0.5-0.1-1-0.1-1.6-0.2c-0.5-0.1-1-0.2-1.6-0.3C13,90.5,12,90.3,11.1,90c-0.1,0-0.4-0.2-0.7-0.3
							c-0.3-0.1-0.5-0.3-0.6-0.3c0,0-0.3-0.2-0.3-0.2l0,0c0.2,0.3,0.4,0.5,0.7,0.7c0.2,0.1,0.4,0.2,0.6,0.3c0.9,0.4,1.9,0.7,3.2,0.8
							c0.4,0,1,0.4,1.4,0.4c1.5,0.2,2.8,0.5,4.2,0.6c1.2,0,1.9-0.1,3.1,0c0.3,0,0.6-0.1,0.9-0.1c1.6,0,3.2,0.1,5.1,0.2
							c0.4,0,0.8,0.2,1.2,0.1c0.5-0.2,1-0.3,1.5-0.4c0.1,0,0.3,0.1,0.5,0.1c1-0.1,1.8-0.5,2.7-0.7c-0.1,0-0.1,0-0.2,0
							C33.5,91.3,32.6,91.4,31.7,91.5z"/>
						<g>
							<path class="st4" d="M36.9,90.2c-0.1,0.1-0.2,0.2-0.3,0.2c0.8-0.2,1.7-0.7,2.4-1.3C38.3,89.6,37.6,89.9,36.9,90.2z"/>
							<path class="st4" d="M35.6,90.7L35.6,90.7c-0.4,0.1-0.9,0.3-1.3,0.4c0,0,0.1,0,0.2,0c0.3-0.1,0.5-0.1,0.8-0.2
								c0.1,0,0.1,0,0.2,0c0.1,0,0.2-0.1,0.3-0.2l0.1,0c0.2,0,0.5-0.1,0.8-0.3c-0.1,0-0.1,0-0.2,0.1C36.1,90.5,35.9,90.6,35.6,90.7z
								"/>
						</g>
						<path class="st6" d="M35.8,92.3c-1,0.1-1.4,0.6-2.4,0.6c-0.7,0.1-1.3,0.2-2,0.3c1.5-0.1,3-0.3,4.4-0.8
							C35.8,92.4,35.8,92.4,35.8,92.3z"/>
						<path class="st7" d="M39,90c-0.2,0.2-0.5,0.4-0.9,0.6c-0.7,0.3-1.4,0.4-2,0.6c-1.7,0.6-3.7,1.5-5.6,1.2
							c-1.7-0.2-3.7,0.1-5.6,0.1c-0.4,0-0.9,0.1-1.3,0.1c-1.3,0-2.5,0-3.7-0.1c-0.9-0.1-1-0.4-2.1-0.4c-0.1,0-0.4-0.2-0.5-0.2
							c-1.5-0.1-3-0.4-4.5-0.7c-1.5-0.3-3-0.8-3.7-2c-0.1,0-0.2,0.1-0.3,0.2c0.6,0.9,1.5,1.4,2.5,1.8c1,0.4,2,0.6,2.9,0.8
							c2.6,0.6,5.2,0.7,7.8,0.9c1.2,0.1,2.5,0.1,3.8,0.1c0,0,0,0,0-0.1c0.1,0,0.2,0,0.3,0.1l0.2,0c0.1,0,0.1,0,0.2,0l-0.2,0
							c0,0,0,0-0.1,0c1,0.1,2-0.2,2.6-0.2c2,0.3,4.5-0.5,6.2-0.9c1.7-0.4,3.1-1.1,4.1-2C39.1,90,39,90,39,90z"/>
						<path class="st8" d="M38.6,89.6c-0.1,0-0.1,0-0.2,0c-0.8,0.9-2.4,1.6-3.8,1.9c-0.1,0-0.4,0-0.7,0c-0.6,0.1-1,0.5-1.5,0.5
							c-2.3,0.2-4.5,0.2-6.8,0.3c-2.3,0.1-4.6,0.1-6.8,0c-0.3,0,0-0.3-0.4-0.4c-1-0.1-1.9-0.2-2.8-0.5c-0.1-0.1-0.5,0-0.9,0
							c-1.5-0.1-2.7-0.5-3.9-0.9c-0.7-0.2-1.2-0.7-1.6-1.2l-0.1,0c0.7,1.2,2.2,1.7,3.7,2c1.5,0.3,3,0.6,4.5,0.7
							c0.1,0,0.4,0.2,0.5,0.2c0.8,0,0.9,0.3,2.1,0.4c1.2,0.1,2.3,0.1,3.7,0.1c0.4,0,0.9-0.1,1.3-0.1c2,0,3.9-0.3,5.6-0.1
							c1.9,0.2,3.9-0.6,5.6-1.2c0.6-0.2,1.3-0.3,2-0.6c0.4-0.2,0.7-0.4,0.9-0.6c-0.3,0-0.5-0.1-0.6-0.3
							C38.4,89.7,38.5,89.7,38.6,89.6z"/>
						<path class="st9" d="M39.4,89.6c-0.6-0.3-1.2-0.1-0.6-0.1c-0.1,0.1-0.2,0.1-0.2,0.2c0.1,0.2,0.3,0.3,0.6,0.2
							C39.3,89.8,39.4,89.7,39.4,89.6z"/>
						<path class="st9" d="M38.3,89.6c-0.1,0.1-0.3,0.1-0.4,0.2c-0.7,0.5-1.7,0.9-2.5,1.1c-0.3,0.1-0.6,0.2-0.8,0.2
							c-0.1,0-0.1,0-0.2,0c-0.8,0.2-1.7,0.6-2.7,0.7c-0.3,0-0.4-0.1-0.5-0.1c-0.5,0.1-1,0.2-1.5,0.4c-0.4,0.1-0.8-0.1-1.2-0.1
							c-1.9-0.1-3.4-0.1-5.1-0.2c-0.3,0-0.6,0.1-0.9,0.1c-1.2-0.1-1.9,0-3.1,0c-1.4,0-2.7-0.4-4.2-0.6c-0.4,0-1-0.3-1.4-0.4
							c-1.3-0.1-2.3-0.4-3.2-0.8c-0.2-0.1-0.4-0.2-0.6-0.3c-0.3-0.2-0.5-0.4-0.7-0.7l-0.2,0.1l-0.1,0c0.4,0.5,0.9,1,1.6,1.2
							c1.2,0.4,2.5,0.8,3.9,0.9c0.4,0,0.8-0.1,0.9,0c0.9,0.3,1.8,0.4,2.8,0.5c0.4,0.1,0.1,0.4,0.4,0.4c2.3,0.2,4.5,0.1,6.8,0
							c2.3-0.1,4.5-0.1,6.8-0.3c0.5,0,0.8-0.4,1.5-0.5c0.3,0,0.5,0,0.7,0c1.4-0.3,3-1,3.8-1.9C38.4,89.6,38.3,89.6,38.3,89.6z"/>
						<path class="st6" d="M22.8,93.3c0.6,0,1.2,0,1.8,0c0,0,0.1,0,0.3,0C24.2,93.3,23.5,93.3,22.8,93.3z"/>
						<path class="st6" d="M25.8,93.4c0.7,0,1.4,0,1.8,0c-0.4-0.1-0.9-0.1-1.4-0.1C26.2,93.3,26,93.4,25.8,93.4z"/>
						<g>
							<path class="st10" d="M36.8,92.1c0.9-0.4,1.8-0.9,2.6-1.6C38.7,90.9,38,91.3,36.8,92.1z"/>
							<path class="st11" d="M39.1,90c-0.9,0.9-2.4,1.6-4.1,2c-1.7,0.3-4.1,1.1-6.2,0.9c-0.6-0.1-1.6,0.3-2.6,0.2
								c-0.2,0.1-0.4,0.2-0.4,0c-1.3,0-2.6,0-3.8-0.1c-2.6-0.2-5.2-0.3-7.8-0.9c-0.9-0.2-2-0.4-2.9-0.8c-1-0.4-1.9-0.9-2.5-1.8
								c-0.2,0.2-0.2,0.8,0.4,1.3c1.2,1,2.6,1.3,3.7,1.6c0.6,0.1,1.2,0.2,1.7,0.3c0.6,0.1,1.2,0.2,1.7,0.2c0.9,0,1.7,0.1,2.6,0.2
								c-0.4,0-0.8,0-1.3,0c1,0.1,2.1,0.1,3.2,0.2c0,0-0.1,0-0.1,0c0.3,0,0.5,0,0.8,0c0.7,0,1.4,0,2,0.1c0.2,0,0.6,0,1,0
								c0.1,0,1.4-0.1,1.8,0c0.1,0,0.2,0,0.3,0c1.2,0,2.4,0,3.5,0c0.7-0.1,1.3-0.2,2-0.2c0.5,0,1.1-0.1,1.6-0.2
								c0.5-0.1,0.8-0.2,0.9-0.2c0.3-0.1,0.7-0.2,1-0.3c1.3-0.6,2-1,2.7-1.4c0.2-0.2,0.4-0.3,0.7-0.5c0.4-0.3,0.5-0.5,0.4-0.7
								C39.3,90,39.2,90,39.1,90z"/>
						</g>
					</g>
				</g>
			</g>
		</g>
	</g>
	<g>
		<path class="st14" d="M1.6,5.3C3.5,2.8,5.4,2.1,8.6,2c3.1-0.1,5.8-1.8,8.9-1.5c2.9,0.3,5,0.1,8-0.1c3.8-0.3,7.2,1.2,11,0.4
			c1.5-0.3,4.4-1,5.7,0c1.2,0.7,2.3,1.2,3.1,2c0.7,0.9,3.4,2.3,2.2,4.4c-1.3,2.5-7.3-1.5-9.2-0.1c-1.3,0.9,0.1,5.3-2.8,4.4
			c-1.8-0.6-0.9-2.3-1.5-3.4c-1.9-2.9-1.8,0.1-2.5,1.6c-2.3,4.5-2.8-2.5-4.4-3.5c-0.7,0.9-1,1.9-1.5,2.9c-1.3-0.4-2.3-1.9-3.7-2.2
			c-0.6,0-1,0.7-1.5,0.6c-0.7,0-1.6-0.6-2-0.6c-0.7,0-1.3,0.7-2.2,0.6c-1-0.1-1.5-1.2-2.2-1.3C13,5.9,11.5,6.4,10,6.5
			c-2.3,0.3-1.3,0.3-2.9,2C4.8,10.9,5.4,8.8,4,7.4c-0.9-1-2.9-0.6-2.8-1.9c0.1-0.9,3.1-2.6,3.8-2.9"/>
		<g>
			<path class="st0" d="M2.1,5.3c2.4-2.8,8.5-3.7,12.4-4.3c3.3-0.5,7.5-0.3,10.9-0.3c3.7-0.1,7.3,0.5,11,0.4c2.4,0,8.1-0.3,9.5,3
				c2.5,5.8-5.9,1.5-7.9,3c-0.9,0.7-0.4,2.6-1,3c-2.2,1.6-2.4-2.7-3.9-3.3c-0.2-0.1-0.6,0.1-0.8,0.2c-1.2,1.3-0.8,5.2-2.9,2.6
				c-0.8-1-0.8-2.5-1.8-3.5c-0.2-0.2-0.8,0-0.9,0.2c-1.8,3-2.3,0.8-4.9,0.6c-2.9-0.3-5.8-0.7-8.7-0.9c-1.6-0.1-3.7,0.4-5.1,1
				c-1,0.4-0.2,0.9-1.8,1.1c-3,0.4,0.5,0.3-1.8-0.7C1.6,5.9,2.4,4.1,5.2,2.7c0.6-0.3,0-0.5-0.4-0.3c-1,0.5-3.8,1.7-3.9,2.9
				C0.7,7.1,3.9,8.4,5,9.8c0.1,0.1,0.3,0,0.4,0c1.3-0.2,0.9-0.4,2.2-1.3c2.5-1.6,2.1-3.2,6.8-1.7c1.1,0.3,0.3,0.9,1.6,1
				c4,0.1,5.5-0.5,9.2,1.6c0.2,0.1,0.8,0,0.9-0.3c1.8-4.4,1.6,2.3,4,2.4c0.9,0,1.4-1.2,1.8-1.7c0.9-1.1-0.3-2,1.2-1.2
				c1.2,0.7,0.1,1.7,1,2.5c1.3,1.2,2.7,1,3.6-0.4c0.4-0.7,0-1.8,0.4-2.4c1.3-1.9,4-0.4,5.6-0.1c0.9,0.1,1.9,0.4,2.7,0.1
				c3.2-1.1,1-4-0.7-5.5C40.8-1.4,36.5,1,30.5,0.4C24.8-0.2,18.6-0.2,13,0.9C8.4,1.8,4.4,1.6,1.2,5.4C1,5.6,1.9,5.5,2.1,5.3L2.1,5.3
				z"/>
		</g>
	</g>
	<g>
		<circle class="st0" cx="15.5" cy="30.6" r="1.6"/>
		<g>
			<g>
				<path class="st0" d="M18.7,27.7c-1.2-2-6.5-3-7.2-0.1c-0.1,0.4,0.6,0.6,0.7,0.2c0.6-2.3,5-1.3,6,0.2
					C18.4,28.3,19,28.1,18.7,27.7L18.7,27.7z"/>
			</g>
		</g>
		<circle class="st0" cx="35" cy="30.1" r="1.6"/>
		<g>
			<g>
				<path class="st0" d="M38.3,27.3c-1.2-2-6.5-3-7.3-0.2c-0.1,0.3,0.6,0.5,0.7,0.1c0.6-2.3,5-1.4,5.9,0.2
					C37.8,27.7,38.5,27.7,38.3,27.3L38.3,27.3z"/>
			</g>
		</g>
		<g>
			<g>
				<path class="st0" d="M35.5,37.3c-6.3,4.3-14.8,4.5-21.9,2.4c-0.2-0.1-1.1-0.1-0.9,0.3c3.9,10.3,22.6,10.9,22.9-1.9
					c0-0.5-1.4-0.7-1.4-0.2C33.8,49.3,17.7,49.7,14,40c-0.3,0.1-0.6,0.2-0.9,0.3c7.7,2.3,16.8,2.2,23.6-2.4
					C37.2,37.5,35.8,37.1,35.5,37.3L35.5,37.3z"/>
			</g>
		</g>
		<g>
			<path class="st15" d="M33.6,42.4c-1.8-0.4-3.7-0.7-5.5-0.4c-1.3,0.2-3.3,1.5-3.9,1.5c-2.4,0.2-6.8-3.3-8.1,0.2
				c6.1,3.5,13.1,6.3,17.7-1.5"/>
			<g>
				<path class="st0" d="M33.7,42.1c-1.8-0.4-3.8-0.8-5.7-0.4c-0.8,0.2-1.5,0.6-2.3,0.9c-1.8,0.6-2.9,0.4-4.6-0.1
					c-2.2-0.7-4.1-1.2-5.4,1.1c-0.1,0.1,0.1,0.3,0.2,0.3c6.5,3.7,13.6,5.7,18.2-1.6c0.2-0.4-0.4-0.6-0.6-0.3
					c-2.2,3.5-5.2,5.5-9.5,4.7c-1.4-0.3-2.7-0.8-4-1.4c-1-0.5-6.1-2.9-0.3-2.7c1.6,0,3,1.3,4.7,1.1c0.8-0.1,1.5-0.6,2.2-0.9
					c2.4-0.9,4.5-0.8,7-0.2C34,42.7,34.2,42.2,33.7,42.1L33.7,42.1z"/>
			</g>
		</g>
		<g>
			<g>
				<path class="st0" d="M24.4,43.6c1.2,0.1,2.4,0.4,3.2,1.3c0.1,0.1,0.8,0.3,0.5,0.1c-1.1-1.1-2.6-1.7-4.2-1.8
					C23.7,43.2,24.3,43.6,24.4,43.6L24.4,43.6z"/>
			</g>
		</g>
	</g>
</g>
</svg>
