<?xml version="1.0" encoding="utf-8"?>
<!-- Generator: Adobe Illustrator 19.1.1, SVG Export Plug-In . SVG Version: 6.00 Build 0)  -->
<svg version="1.1" id="Warstwa_1" xmlns="http://www.w3.org/2000/svg" xmlns:xlink="http://www.w3.org/1999/xlink" x="0px" y="0px"
	 viewBox="0 0 24.5 24.5" style="enable-background:new 0 0 24.5 24.5;" xml:space="preserve">
<style type="text/css">
	.st0{fill-rule:evenodd;clip-rule:evenodd;}
</style>
<g>
	<path class="st0" d="M24.2,23.1l-6.3-6.2c1.7-1.8,2.7-4.2,2.7-6.8C20.6,4.5,16,0,10.3,0C4.6,0,0,4.5,0,10.1
		c0,5.6,4.6,10.1,10.3,10.1c2.5,0,4.7-0.8,6.5-2.3l6.3,6.2c0.3,0.3,0.8,0.3,1.1,0C24.5,23.9,24.5,23.4,24.2,23.1L24.2,23.1z
		 M10.3,18.7c-4.8,0-8.7-3.8-8.7-8.6c0-4.7,3.9-8.6,8.7-8.6c4.8,0,8.7,3.8,8.7,8.6C19,14.9,15.1,18.7,10.3,18.7L10.3,18.7z
		 M10.3,18.7"/>
</g>
</svg>
